<svg xmlns="http://www.w3.org/2000/svg" width="46" height="45" viewBox="0 0 46 45" fill="none">
  <path d="M10.7376 34.6688V29.1937C10.7376 27.375 12.1626 25.7437 14.1876 25.7437C16.0063 25.7437 17.6376 27.1687 17.6376 29.1937V34.4625C17.6376 38.1187 14.6001 41.1563 10.9438 41.1563C7.28759 41.1563 4.25009 38.1 4.25009 34.4625V22.9125C4.04384 12.375 12.3688 3.84375 22.9063 3.84375C33.4438 3.84375 41.7501 12.375 41.7501 22.7062V34.2563C41.7501 37.9125 38.7126 40.95 35.0563 40.95C31.4001 40.95 28.3626 37.9125 28.3626 34.2563V28.9875C28.3626 27.1687 29.7876 25.5375 31.8126 25.5375C33.6313 25.5375 35.2626 26.9625 35.2626 28.9875V34.6688" stroke="#EDA415" stroke-width="2.5" stroke-linecap="round" stroke-linejoin="round"/>
</svg>